<?xml version="1.0" encoding="utf-8"?>
<!-- Generator: Adobe Illustrator 16.0.0, SVG Export Plug-In . SVG Version: 6.00 Build 0)  -->
<!DOCTYPE svg PUBLIC "-//W3C//DTD SVG 1.1//EN" "http://www.w3.org/Graphics/SVG/1.1/DTD/svg11.dtd">
<svg version="1.1" id="Layer_1" xmlns="http://www.w3.org/2000/svg" xmlns:xlink="http://www.w3.org/1999/xlink" x="0px" y="0px"
	 width="257.717px" height="257.719px" viewBox="4.588 4.588 257.717 257.719" enable-background="new 4.588 4.588 257.717 257.719"
	 xml:space="preserve">
<path id="Blue_1_" fill="#3C5A99" d="M248.082,262.307c7.854,0,14.223-6.369,14.223-14.225V18.812
	c0-7.856-6.368-14.224-14.223-14.224H18.812c-7.856,0-14.224,6.367-14.224,14.224v229.271c0,7.854,6.366,14.225,14.224,14.225
	H248.082z"/>
<path id="f" fill="#FFFFFF" d="M182.409,262.307v-99.803h33.499l5.016-38.896h-38.515V98.777c0-11.261,3.127-18.935,19.274-18.935
	l20.596-0.009V45.045c-3.562-0.475-15.787-1.533-30.012-1.533c-29.695,0-50.024,18.126-50.024,51.413v28.684h-33.585v38.896h33.585
	v99.803H182.409z"/>
</svg>
